<?xml version="1.0" encoding="UTF-8"?>
<svg id="Layer_1" data-name="Layer 1" xmlns="http://www.w3.org/2000/svg" version="1.1" viewBox="0 0 16 16">
  <defs>
    <style>
      .cls-1 {
        fill: #fff;
        stroke-width: 0px;
      }
    </style>
  </defs>
  <path class="cls-1" d="M1,8c0,3.9,3.1,7,7,7s7-3.1,7-7S11.9,1,8,1,1,4.1,1,8M16,8c0,4.4-3.6,8-8,8S0,12.4,0,8,3.6,0,8,0s8,3.6,8,8M5.5,4h3.1c1.7,0,2.7,1,2.7,2.5s-.7,1.9-1.5,2.2l1.6,3.3h-1.5l-1.5-3.1h-1.7v3.1h-1.3v-8ZM6.8,5.1v2.8h1.5c1,0,1.6-.5,1.6-1.4s-.6-1.4-1.5-1.4h-1.6Z"/>
</svg>